<?xml version="1.0" encoding="iso-8859-1"?>
<!-- Generator: Adobe Illustrator 18.0.0, SVG Export Plug-In . SVG Version: 6.00 Build 0)  -->
<!DOCTYPE svg PUBLIC "-//W3C//DTD SVG 1.1//EN" "http://www.w3.org/Graphics/SVG/1.1/DTD/svg11.dtd">
<svg version="1.1" id="Capa_1" xmlns="http://www.w3.org/2000/svg" xmlns:xlink="http://www.w3.org/1999/xlink" x="0px" y="0px"
	 viewBox="0 0 481.679 481.679" style="enable-background:new 0 0 481.679 481.679;" xml:space="preserve">
<g>
	<path d="M113.328,308.615c-12.451,0-34.083,32.021-46.052,61.578c-0.957,2.364,0.142,5.072,2.151,6.642
		c1.994,1.579,4.757,1.781,6.956,0.526c6.013-3.407,13.658-6.743,21.493-8.415v35.947c0,18.471-15.011,33.489-33.489,33.489
		c-18.462,0-33.473-15.018-33.473-33.489V27.848c0-8.534-6.924-15.457-15.468-15.457C6.908,12.391,0,19.314,0,27.848v377.045
		c0,35.506,28.89,64.396,64.388,64.396c35.515,0,64.403-28.89,64.403-64.396v-80.821
		C128.791,315.538,121.883,308.615,113.328,308.615z"/>
	<path d="M468.165,338.714c0-20.411,6.167-42.99,13.06-59.192c1.241-2.944-0.122-6.203-3.311-7.937
		c-3.219-1.751-7.476-1.546-10.411,0.479c-16.295,11.296-26.392,24.565-32.847,35.979c-25.322-13.598-62.973-24.862-97.249-32.062
		c-1.084-15.073,1.679-28.622,4.066-37.06c0.611-2.16,0.032-4.475-1.505-6.093c-1.557-1.626-3.835-2.315-6.014-1.813
		c-20.146,4.638-41.027,22.734-54.576,36.527c-2.703-0.158-5.387-0.289-7.649-0.289c-47.226,0-106.889,32.296-106.889,72.159
		c0,39.857,59.662,72.161,106.889,72.161c2.672,0,5.762-0.134,8.996-0.337c9.766,10.583,28.043,28.104,45.689,32.17
		c1.667,0.376,3.409-0.142,4.587-1.381c1.175-1.241,1.616-3.007,1.143-4.64c-2.054-7.308-4.41-19.656-2.495-33.025
		c36.22-7.081,77.735-18.935,105.022-33.585c6.439,11.414,16.535,24.69,32.83,35.979c2.935,2.018,7.192,2.229,10.411,0.479
		c3.189-1.736,4.552-4.993,3.311-7.937C474.316,383.091,468.165,359.125,468.165,338.714z M220.28,336.807
		c-7.882,0-14.29-6.414-14.29-14.297c0-7.905,6.408-14.311,14.29-14.311c7.929,0,14.305,6.406,14.305,14.311
		C234.585,330.393,228.209,336.807,220.28,336.807z"/>
	<path d="M102.259,51.995c6.671,0,12.074-5.401,12.074-12.074c0-6.672-5.403-12.073-12.074-12.073
		c-6.672,0-12.075,5.401-12.075,12.073C90.184,46.594,95.587,51.995,102.259,51.995z"/>
	<path d="M148.905,126.377c8.275,0,14.979-6.703,14.979-14.979c0-8.266-6.703-14.969-14.979-14.969
		c-8.275,0-14.963,6.703-14.963,14.969C133.942,119.674,140.63,126.377,148.905,126.377z"/>
	<path d="M123.988,180.466c-11.996,0-21.729,9.728-21.729,21.739c0,12.001,9.733,21.729,21.729,21.729
		c11.995,0,21.728-9.728,21.728-21.729C145.717,190.193,135.983,180.466,123.988,180.466z"/>
	<path d="M170.225,263.468c0-6.759-5.478-12.246-12.26-12.246c-6.766,0-12.248,5.487-12.248,12.246
		c0,6.768,5.482,12.255,12.248,12.255C164.747,275.723,170.225,270.236,170.225,263.468z"/>
</g>
<g>
</g>
<g>
</g>
<g>
</g>
<g>
</g>
<g>
</g>
<g>
</g>
<g>
</g>
<g>
</g>
<g>
</g>
<g>
</g>
<g>
</g>
<g>
</g>
<g>
</g>
<g>
</g>
<g>
</g>
</svg>
