<?xml version="1.0" encoding="iso-8859-1"?>
<!-- Generator: Adobe Illustrator 19.0.0, SVG Export Plug-In . SVG Version: 6.00 Build 0)  -->
<svg version="1.1" id="Capa_1" xmlns="http://www.w3.org/2000/svg" xmlns:xlink="http://www.w3.org/1999/xlink" x="0px" y="0px"
	 viewBox="0 0 512 512" style="enable-background:new 0 0 512 512;" xml:space="preserve">
<g>
	<path style="fill:#FFE6C3;" d="M150.541,194.583H164v-56h-13.459c-10.24,0-18.541,8.301-18.541,18.541v18.917
		C132,186.281,140.301,194.583,150.541,194.583z"/>
	<path style="fill:#FFE6C3;" d="M361.459,138.583H348v56h13.459c10.24,0,18.541-8.301,18.541-18.541v-18.917
		C380,146.884,371.699,138.583,361.459,138.583z"/>
</g>
<path style="fill:#FFCDAC;" d="M270.333,267.6h-28.667c-42.894,0-77.667-34.773-77.667-77.667V87.667
	C164,44.773,198.773,10,241.667,10h28.667C313.227,10,348,44.773,348,87.667v102.267C348,232.827,313.227,267.6,270.333,267.6z"/>
<path style="fill:#FF824B;" d="M270.333,10h-28.667C198.772,10,164,44.772,164,87.667v50.546l1.134,0.37h50.343
	c47.495,0,93.044-18.867,126.627-52.451l0,0c0,0,2.384-2.193,5.572-5.376C344.178,41.102,310.897,10,270.333,10z"/>
<path style="fill:#FFCDAC;" d="M207.896,261.822v8.232c0,22.725-15.816,42.387-38.014,47.257l-34.195,7.501
	C84.484,336.045,48,381.4,48,433.82V502h416v-68.117c0-52.449-36.523-97.821-87.762-109.024l-34.616-7.569
	c-22.213-4.857-38.046-24.526-38.046-47.264v-8.36"/>
<path style="fill:#4A72B7;" d="M376.238,324.859l-34.615-7.569c-7.834-1.713-14.869-5.275-20.702-10.158
	c-0.415,0.328-0.641,0.507-0.641,0.507c-35.501,35.5-93.058,35.5-128.559,0l-1.232-0.425c-5.812,4.849-12.813,8.387-20.606,10.097
	l-34.195,7.501C84.484,336.044,48,381.4,48,433.82V502h416v-68.117C464,381.434,427.477,336.062,376.238,324.859z"/>
<path d="M425.017,362.822c1.96,2.003,4.554,3.008,7.15,3.008c2.521,0,5.046-0.948,6.991-2.851
	c3.948-3.862,4.019-10.193,0.157-14.142l-0.72-0.729c-3.896-3.914-10.229-3.927-14.143-0.031s-3.928,10.229-0.031,14.143
	L425.017,362.822z"/>
<path d="M502,492h-28v-58.116c0-19.004-4.525-37.985-13.088-54.893c-2.495-4.928-8.515-6.898-13.438-4.403
	c-4.928,2.495-6.898,8.512-4.403,13.438c7.15,14.12,10.93,29.978,10.93,45.857V492H58v-58.18c0-47.356,33.573-89.093,79.829-99.24
	l34.195-7.502c6.509-1.428,12.576-3.95,18.034-7.335c18.32,15.864,41.465,24.521,65.941,24.521c24.388,0,47.454-8.595,65.742-24.349
	c5.384,3.29,11.35,5.747,17.744,7.145l34.616,7.568c8.533,1.865,16.781,4.813,24.515,8.762c1.456,0.743,3.009,1.096,4.539,1.096
	c3.638,0,7.146-1.992,8.914-5.455c2.512-4.919,0.56-10.941-4.359-13.453c-9.259-4.728-19.13-8.256-29.337-10.488l-34.615-7.568
	c-17.489-3.824-30.183-19.593-30.183-37.495v-3.857c22.453-12.786,38.735-35.201,43.193-61.586h4.69
	c15.737,0,28.541-12.804,28.541-28.542v-18.917c0-15.737-12.804-28.541-28.541-28.541H358V87.667C358,39.327,318.673,0,270.333,0
	h-28.666C193.327,0,154,39.327,154,87.667v40.916h-3.459c-15.737,0-28.541,12.804-28.541,28.541v18.917
	c0,15.738,12.804,28.542,28.541,28.542h4.69c4.423,26.178,20.485,48.45,42.665,61.285v4.186c0,17.89-12.683,33.656-30.156,37.489
	l-34.195,7.502c-26.983,5.919-51.379,21.033-68.693,42.558C47.536,379.128,38,406.195,38,433.82V492H10c-5.522,0-10,4.478-10,10
	s4.478,10,10,10h38h416h38c5.522,0,10-4.478,10-10S507.522,492,502,492z M361.459,148.583c4.71,0,8.541,3.831,8.541,8.541v18.917
	c0,4.71-3.831,8.542-8.541,8.542H358v-36L361.459,148.583L361.459,148.583z M241.667,20h28.666c33.826,0,61.935,24.95,66.891,57.413
	c-0.783,0.438-1.523,0.982-2.189,1.647c-31.935,31.936-74.395,49.522-119.557,49.522H174V87.667C174,50.355,204.355,20,241.667,20z
	 M142,176.041v-18.917c0-4.71,3.831-8.541,8.541-8.541H154v36h-3.459C145.831,184.583,142,180.751,142,176.041z M174,189.934
	v-41.351h41.478c24.956,0,49.301-4.843,72.357-14.393c18.353-7.602,35.166-17.899,50.165-30.68v35.073v51.351
	c0,37.312-30.355,67.666-67.667,67.666h-28.666C204.355,257.6,174,227.245,174,189.934z M241.667,277.6h28.666
	c8.109,0,15.963-1.112,23.422-3.182c0.916,11.948,5.52,23.095,12.772,32.12c-14.297,11.479-31.928,17.728-50.527,17.728
	c-18.735,0-36.493-6.335-50.845-17.976c7.162-9.019,11.697-20.121,12.573-32.011C225.34,276.441,233.371,277.6,241.667,277.6z"/>
<path d="M111.04,370.047c-19.617,15.525-30.868,38.77-30.868,63.773c0,5.522,4.478,10,10,10s10-4.478,10-10
	c0-18.854,8.485-36.382,23.28-48.09c4.33-3.428,5.063-9.717,1.636-14.048C121.661,367.354,115.373,366.62,111.04,370.047z"/>
<path d="M144.036,354.414l-0.463,0.103c-5.392,1.198-8.791,6.54-7.593,11.931c1.035,4.661,5.168,7.833,9.752,7.833
	c0.719,0,1.448-0.078,2.179-0.24l0.438-0.097c5.393-1.19,8.799-6.527,7.608-11.921C154.767,356.63,149.432,353.226,144.036,354.414z
	"/>
<g>
</g>
<g>
</g>
<g>
</g>
<g>
</g>
<g>
</g>
<g>
</g>
<g>
</g>
<g>
</g>
<g>
</g>
<g>
</g>
<g>
</g>
<g>
</g>
<g>
</g>
<g>
</g>
<g>
</g>
</svg>
