<?xml version="1.0" encoding="iso-8859-1"?>
<!-- Generator: Adobe Illustrator 19.0.0, SVG Export Plug-In . SVG Version: 6.00 Build 0)  -->
<svg version="1.1" id="Capa_1" xmlns="http://www.w3.org/2000/svg" xmlns:xlink="http://www.w3.org/1999/xlink" x="0px" y="0px"
	 viewBox="0 0 512 512" style="enable-background:new 0 0 512 512;" xml:space="preserve">
<g>
	<g>
		<path d="M439.315,348.837l-0.72-0.729c-3.896-3.914-10.229-3.927-14.143-0.031s-3.928,10.229-0.031,14.143l0.596,0.602
			c1.96,2.003,4.554,3.008,7.15,3.008c2.521,0,5.046-0.948,6.991-2.851C443.106,359.117,443.177,352.786,439.315,348.837z" fill="#555"/>
	</g>
</g>
<g>
	<g>
		<path d="M502,492h-28v-58.116c0-19.004-4.525-37.985-13.088-54.893c-2.495-4.928-8.515-6.898-13.438-4.403
			c-4.928,2.495-6.898,8.512-4.403,13.438c7.15,14.12,10.93,29.978,10.93,45.857V492H58v-58.18c0-47.356,33.573-89.093,79.829-99.24
			l34.195-7.502c6.509-1.428,12.576-3.95,18.034-7.335c18.32,15.864,41.465,24.521,65.941,24.521
			c24.388,0,47.454-8.595,65.742-24.349c5.384,3.29,11.35,5.747,17.744,7.145l34.616,7.568c8.533,1.865,16.781,4.813,24.515,8.762
			c1.456,0.743,3.009,1.096,4.539,1.096c3.638,0,7.146-1.992,8.914-5.455c2.512-4.919,0.56-10.941-4.359-13.453
			c-9.259-4.728-19.13-8.256-29.337-10.488l-34.615-7.568c-17.489-3.824-30.183-19.593-30.183-37.495v-3.857
			c22.453-12.786,38.735-35.201,43.193-61.586h4.69c15.737,0,28.541-12.804,28.541-28.542v-18.917
			c0-15.737-12.804-28.541-28.541-28.541H358V87.667C358,39.327,318.673,0,270.333,0h-28.666C193.327,0,154,39.327,154,87.667
			v40.916h-3.459c-15.737,0-28.541,12.804-28.541,28.541v18.917c0,15.738,12.804,28.542,28.541,28.542h4.69
			c4.423,26.178,20.485,48.45,42.665,61.285v4.186c0,17.89-12.683,33.656-30.156,37.489l-34.195,7.502
			c-26.983,5.919-51.379,21.033-68.693,42.558C47.536,379.128,38,406.195,38,433.82V492H10c-5.522,0-10,4.478-10,10
			c0,5.522,4.478,10,10,10h38h416h38c5.522,0,10-4.478,10-10C512,496.478,507.522,492,502,492z M358,148.583h3.459v0
			c4.71,0,8.541,3.831,8.541,8.541v18.917c0,4.71-3.831,8.542-8.541,8.542H358V148.583z M154,184.583h-3.459
			c-4.71,0-8.541-3.832-8.541-8.542v-18.917c0-4.71,3.831-8.541,8.541-8.541H154V184.583z M256,324.266
			c-18.735,0-36.493-6.335-50.845-17.976c7.162-9.019,11.697-20.121,12.573-32.011c7.612,2.162,15.643,3.321,23.939,3.321h28.666
			c8.109,0,15.963-1.112,23.422-3.182c0.916,11.948,5.52,23.095,12.772,32.12C292.23,318.017,274.599,324.266,256,324.266z
			 M174,87.667C174,50.355,204.355,20,241.667,20h28.666c33.826,0,61.935,24.95,66.891,57.413c-0.783,0.438-1.523,0.982-2.189,1.647
			c-31.935,31.936-74.395,49.522-119.557,49.522H174V87.667z M174,189.934v-41.351h41.478c24.956,0,49.301-4.843,72.357-14.393
			c18.353-7.602,35.166-17.899,50.165-30.68v35.073v51.351c0,37.312-30.355,67.666-67.667,67.666h-28.666
			C204.355,257.6,174,227.245,174,189.934z" fill="#555"/>
	</g>
</g>
<g>
	<g>
		<path d="M125.088,371.682c-3.427-4.328-9.715-5.062-14.048-1.635c-19.617,15.525-30.868,38.77-30.868,63.773
			c0,5.522,4.478,10,10,10c5.522,0,10-4.478,10-10c0-18.854,8.485-36.382,23.28-48.09
			C127.782,382.302,128.515,376.013,125.088,371.682z" fill="#555"/>
	</g>
</g>
<g>
	<g>
		<path d="M155.957,362.023c-1.19-5.393-6.525-8.797-11.921-7.609l-0.463,0.103c-5.392,1.198-8.791,6.54-7.593,11.931
			c1.035,4.661,5.168,7.833,9.752,7.833c0.719,0,1.448-0.078,2.179-0.24l0.438-0.097
			C153.742,372.754,157.148,367.417,155.957,362.023z" fill="#555"/>
	</g>
</g>
<g>
</g>
<g>
</g>
<g>
</g>
<g>
</g>
<g>
</g>
<g>
</g>
<g>
</g>
<g>
</g>
<g>
</g>
<g>
</g>
<g>
</g>
<g>
</g>
<g>
</g>
<g>
</g>
<g>
</g>
</svg>
