<?xml version="1.0" encoding="iso-8859-1"?>
<!-- Generator: Adobe Illustrator 19.0.0, SVG Export Plug-In . SVG Version: 6.00 Build 0)  -->
<svg version="1.1" id="Capa_1" xmlns="http://www.w3.org/2000/svg" xmlns:xlink="http://www.w3.org/1999/xlink" x="0px" y="0px"
	 viewBox="0 0 512 512" style="enable-background:new 0 0 512 512;" xml:space="preserve">
<circle style="fill:#f45c28;" cx="256" cy="256" r="246"/>
<circle style="fill:#fa9d7e;" cx="256" cy="256" r="82"/>
<circle style="fill:#FFFFFF;" cx="256" cy="256" r="24"/>
<path d="M256,512c-68.38,0-132.667-26.629-181.019-74.98C26.628,388.667,0,324.38,0,256S26.628,123.333,74.981,74.98
	C123.333,26.629,187.62,0,256,0s132.667,26.629,181.019,74.98C485.372,123.333,512,187.62,512,256s-26.628,132.667-74.981,181.02
	C388.667,485.371,324.38,512,256,512z M256,20C125.869,20,20,125.869,20,256s105.869,236,236,236s236-105.869,236-236
	S386.131,20,256,20z"/>
<path d="M256,348c-50.729,0-92-41.271-92-92s41.271-92,92-92s92,41.271,92,92S306.729,348,256,348z M256,184
	c-39.701,0-72,32.299-72,72s32.299,72,72,72s72-32.299,72-72S295.701,184,256,184z"/>
<path d="M256,290c-18.748,0-34-15.252-34-34s15.252-34,34-34s34,15.252,34,34S274.748,290,256,290z M256,242c-7.72,0-14,6.28-14,14
	s6.28,14,14,14s14-6.28,14-14S263.72,242,256,242z"/>
<path d="M256,76c-6.685,0-10.315-5.13-10.338-9.956c-0.022-4.827,3.56-9.99,10.243-10.052c0.04,0,0.081,0,0.12,0
	c6.609,0,10.243,5.063,10.31,9.861c0.067,4.826-3.468,10.021-10.15,10.145C256.123,75.999,256.062,76,256,76z"/>
<path d="M66,266c-5.523,0-10-4.478-10-10c0-47.788,17.126-94.045,48.223-130.25c30.761-35.813,73.232-59.669,119.59-67.172
	c5.445-0.891,10.586,2.821,11.469,8.273c0.882,5.452-2.822,10.587-8.274,11.469C139.508,92.482,76,167.208,76,256
	C76,261.522,71.523,266,66,266z"/>
<path d="M122,266c-5.523,0-10-4.478-10-10c0-79.402,64.598-144,144-144c5.523,0,10,4.478,10,10s-4.477,10-10,10
	c-68.374,0-124,55.626-124,124C132,261.522,127.523,266,122,266z"/>
<path d="M256,456c-5.523,0-10-4.478-10-10s4.477-10,10-10c99.252,0,180-80.748,180-180c0-5.522,4.477-10,10-10s10,4.478,10,10
	C456,366.28,366.28,456,256,456z"/>
<path d="M256,400c-5.523,0-10-4.478-10-10s4.477-10,10-10l0.912-0.004c0.03,0,0.06,0,0.09,0c5.482,0,9.949,4.419,9.998,9.912
	c0.049,5.522-4.389,10.039-9.912,10.088L256,400z"/>
<path d="M291.687,395.197c-4.388,0-8.412-2.91-9.635-7.346c-1.467-5.324,1.659-10.83,6.983-12.298
	C342.594,360.79,380,311.628,380,256c0-5.522,4.477-10,10-10s10,4.478,10,10c0,64.597-43.445,121.688-105.65,138.835
	C293.461,395.08,292.567,395.197,291.687,395.197z"/>
<g>
</g>
<g>
</g>
<g>
</g>
<g>
</g>
<g>
</g>
<g>
</g>
<g>
</g>
<g>
</g>
<g>
</g>
<g>
</g>
<g>
</g>
<g>
</g>
<g>
</g>
<g>
</g>
<g>
</g>
</svg>
