<?xml version="1.0" encoding="iso-8859-1"?>
<!-- Generator: Adobe Illustrator 19.0.0, SVG Export Plug-In . SVG Version: 6.00 Build 0)  -->
<svg version="1.1" id="Capa_1" xmlns="http://www.w3.org/2000/svg" xmlns:xlink="http://www.w3.org/1999/xlink" x="0px" y="0px"
	 viewBox="0 0 512.001 512.001" style="enable-background:new 0 0 512.001 512.001;" xml:space="preserve">
<g>
	<g>
		<path d="M469.973,0H42.028C18.872,0,0.033,18.839,0.033,41.995v329.875c0,23.156,18.839,41.995,41.995,41.995h176.268v24.08
			c0,18.563-9.221,35.793-24.665,46.091l-11.952,7.969H94.777c-5.522,0-9.999,4.476-9.999,9.999c0,5.522,4.476,9.999,9.999,9.999
			h321.958c5.522,0,9.999-4.476,9.999-9.999s-4.476-9.999-9.999-9.999h-86.414l-11.952-7.969
			c-15.445-10.298-24.665-27.528-24.665-46.091v-24.08h176.268c23.156,0,41.995-18.839,41.995-41.995V41.995
			C511.968,18.839,493.129,0,469.973,0z M296.541,492.003H215.46c14.483-14.057,22.833-33.455,22.833-54.06v-24.08h35.414v24.08
			C273.707,458.548,282.058,477.945,296.541,492.003z M491.97,371.869c0,12.129-9.868,21.997-21.997,21.997H42.028
			c-12.129,0-21.997-9.868-21.997-21.997V41.995c0-12.129,9.868-21.997,21.997-21.997h427.945c12.129,0,21.997,9.868,21.997,21.997
			V371.869z"/>
	</g>
</g>
<g>
	<g>
		<path d="M417.98,43.994H290.996c-5.522,0-9.999,4.476-9.999,9.999s4.476,9.999,9.999,9.999H417.98
			c16.54,0,29.996,13.456,29.996,29.996v225.888c0,16.54-13.456,29.996-29.996,29.996H94.021c-16.54,0-29.996-13.456-29.996-29.996
			V93.988c0-16.54,13.456-29.996,29.996-29.996h125.984c5.522,0,9.999-4.476,9.999-9.999s-4.476-9.999-9.999-9.999H94.021
			c-27.566,0-49.994,22.427-49.994,49.994v225.888c0,27.566,22.427,49.994,49.994,49.994H417.98
			c27.566,0,49.994-22.427,49.994-49.994V93.988C467.973,66.421,445.546,43.994,417.98,43.994z"/>
	</g>
</g>
<g>
	<g>
		<path d="M310.341,175.992l-63.259-36.522c-9.503-5.486-20.849-5.485-30.35,0c-9.501,5.486-15.174,15.311-15.174,26.283v73.046
			c0,10.972,5.672,20.797,15.174,26.284c4.751,2.744,9.963,4.114,15.175,4.114c5.211,0,10.425-1.372,15.175-4.114l63.259-36.522
			c9.502-5.485,15.175-15.311,15.175-26.284C325.517,191.303,319.843,181.479,310.341,175.992z M300.344,211.24l-63.259,36.522
			c-4.672,2.698-8.797,0.898-10.353,0c-1.557-0.899-5.176-3.571-5.176-8.965v-73.045h0c0-5.394,3.62-8.066,5.176-8.965
			c0.946-0.546,2.84-1.424,5.228-1.424c1.542,0,3.292,0.366,5.124,1.424l63.259,36.522c4.671,2.698,5.176,7.168,5.176,8.965
			C305.52,204.072,305.016,208.543,300.344,211.24z"/>
	</g>
</g>
<g>
	<g>
		<path d="M407.647,296.962H150.546c-4.127-11.638-15.241-19.997-28.276-19.997c-16.54,0-29.996,13.456-29.996,29.996
			s13.456,29.996,29.996,29.996c13.034,0,24.149-8.36,28.276-19.997h257.101c5.522,0,9.999-4.476,9.999-9.999
			C417.646,301.438,413.169,296.962,407.647,296.962z M122.27,316.959c-5.513,0-9.999-4.485-9.999-9.999s4.485-9.999,9.999-9.999
			c5.513,0,9.999,4.485,9.999,9.999S127.784,316.959,122.27,316.959z"/>
	</g>
</g>
<g>
	<g>
		<path d="M263.07,46.924c-1.86-1.86-4.439-2.93-7.069-2.93c-2.63,0-5.209,1.07-7.069,2.93s-2.93,4.439-2.93,7.069
			s1.07,5.209,2.93,7.069s4.439,2.93,7.069,2.93s5.209-1.07,7.069-2.93s2.93-4.439,2.93-7.069S264.929,48.784,263.07,46.924z"/>
	</g>
</g>
<g>
</g>
<g>
</g>
<g>
</g>
<g>
</g>
<g>
</g>
<g>
</g>
<g>
</g>
<g>
</g>
<g>
</g>
<g>
</g>
<g>
</g>
<g>
</g>
<g>
</g>
<g>
</g>
<g>
</g>
</svg>
