<?xml version="1.0" encoding="iso-8859-1"?>
<!-- Generator: Adobe Illustrator 19.0.0, SVG Export Plug-In . SVG Version: 6.00 Build 0)  -->
<svg version="1.1" id="Capa_1" xmlns="http://www.w3.org/2000/svg" xmlns:xlink="http://www.w3.org/1999/xlink" x="0px" y="0px"
	 viewBox="0 0 512.001 512.001" style="enable-background:new 0 0 512.001 512.001;" xml:space="preserve">
<path style="fill:#F0F0FA;" d="M469.973,403.865H42.028c-17.671,0-31.996-14.325-31.996-31.996V41.995
	c0-17.671,14.325-31.996,31.996-31.996h427.945c17.671,0,31.996,14.325,31.996,31.996v329.874
	C501.969,389.54,487.644,403.865,469.973,403.865z"/>
<path style="fill:#C8F5FF;" d="M417.98,359.871H94.021c-22.088,0-39.995-17.907-39.995-39.995V93.988
	c0-22.088,17.907-39.995,39.995-39.995H417.98c22.088,0,39.995,17.907,39.995,39.995v225.888
	C457.974,341.964,440.068,359.871,417.98,359.871z"/>
<path style="fill:#878791;" d="M327.295,502.001l-14.471-9.649c-18.192-12.128-29.117-32.546-29.117-54.41v-34.079h-55.412v34.079
	c0,21.864-10.927,42.282-29.117,54.41L327.295,502.001z"/>
<path style="fill:#00B5AD;" d="M242.083,148.129l63.259,36.522c13.567,7.833,13.567,27.415,0,35.248l-63.259,36.522
	c-13.567,7.833-30.526-1.959-30.526-17.625v-73.045C211.557,150.087,228.516,140.296,242.083,148.129z"/>
<circle style="fill:#A5DC69;" cx="122.265" cy="306.96" r="19.997"/>
<path d="M469.973,0H42.028C18.872,0,0.033,18.839,0.033,41.995v329.874c0,23.156,18.839,41.995,41.995,41.995h176.268v24.08
	c0,18.563-9.221,35.793-24.665,46.091l-11.952,7.969H94.777c-5.522,0-9.999,4.476-9.999,9.999s4.476,9.999,9.999,9.999h321.959
	c5.522,0,9.999-4.476,9.999-9.999s-4.476-9.999-9.999-9.999h-86.414l-11.952-7.969c-15.445-10.298-24.665-27.528-24.665-46.091
	v-24.08h176.268c23.156,0,41.995-18.839,41.995-41.995V41.995C511.968,18.839,493.129,0,469.973,0z M296.541,492.003H215.46
	c14.483-14.057,22.833-33.455,22.833-54.06v-24.08h35.414v24.08C273.707,458.548,282.058,477.945,296.541,492.003z M491.97,371.869
	c0,12.129-9.868,21.997-21.997,21.997H42.028c-12.129,0-21.997-9.868-21.997-21.997V41.995c0-12.129,9.868-21.997,21.997-21.997
	h427.945c12.129,0,21.997,9.868,21.997,21.997V371.869z"/>
<path d="M417.98,43.994H290.996c-5.522,0-9.999,4.476-9.999,9.999s4.476,9.999,9.999,9.999H417.98
	c16.54,0,29.996,13.456,29.996,29.996v225.888c0,16.54-13.456,29.996-29.996,29.996H94.021c-16.54,0-29.996-13.456-29.996-29.996
	V93.988c0-16.54,13.456-29.996,29.996-29.996h125.984c5.522,0,9.999-4.476,9.999-9.999s-4.476-9.999-9.999-9.999H94.021
	c-27.566,0-49.994,22.427-49.994,49.994v225.888c0,27.566,22.427,49.994,49.994,49.994H417.98c27.566,0,49.994-22.427,49.994-49.994
	V93.988C467.973,66.421,445.546,43.994,417.98,43.994z"/>
<path d="M201.559,165.753v73.046c0,10.972,5.672,20.797,15.174,26.284c4.751,2.744,9.963,4.114,15.175,4.114
	c5.211,0,10.425-1.372,15.175-4.114l63.259-36.522c9.502-5.485,15.175-15.311,15.175-26.284c0-10.973-5.673-20.797-15.175-26.284
	l-63.259-36.522c-9.503-5.486-20.849-5.485-30.35,0C207.232,144.956,201.559,154.781,201.559,165.753z M221.556,165.753
	c0-5.394,3.62-8.066,5.176-8.965c0.946-0.546,2.84-1.424,5.228-1.424c1.542,0,3.292,0.366,5.124,1.424l63.259,36.522
	c4.671,2.698,5.176,7.168,5.176,8.965c0,1.797-0.504,6.268-5.176,8.965l-63.259,36.522c-4.672,2.698-8.797,0.898-10.353,0
	c-1.557-0.899-5.176-3.571-5.176-8.965L221.556,165.753L221.556,165.753z"/>
<path d="M122.27,276.964c-16.54,0-29.996,13.456-29.996,29.996c0,16.54,13.456,29.996,29.996,29.996
	c13.034,0,24.149-8.36,28.276-19.997h257.101c5.522,0,9.999-4.476,9.999-9.999c0-5.522-4.476-9.999-9.999-9.999H150.546
	C146.419,285.324,135.305,276.964,122.27,276.964z M122.27,316.959c-5.513,0-9.999-4.485-9.999-9.999
	c0-5.513,4.485-9.999,9.999-9.999c5.513,0,9.999,4.485,9.999,9.999C132.268,312.474,127.784,316.959,122.27,316.959z"/>
<path d="M256,63.992c2.63,0,5.209-1.07,7.069-2.93c1.86-1.86,2.93-4.439,2.93-7.069s-1.07-5.209-2.93-7.069
	c-1.86-1.86-4.439-2.93-7.069-2.93c-2.63,0-5.209,1.07-7.069,2.93c-1.86,1.86-2.93,4.439-2.93,7.069s1.07,5.209,2.93,7.069
	C250.791,62.922,253.371,63.992,256,63.992z"/>
<g>
</g>
<g>
</g>
<g>
</g>
<g>
</g>
<g>
</g>
<g>
</g>
<g>
</g>
<g>
</g>
<g>
</g>
<g>
</g>
<g>
</g>
<g>
</g>
<g>
</g>
<g>
</g>
<g>
</g>
</svg>
