<?xml version="1.0" encoding="iso-8859-1"?>
<!-- Generator: Adobe Illustrator 19.0.0, SVG Export Plug-In . SVG Version: 6.00 Build 0)  -->
<svg version="1.1" id="Capa_1" xmlns="http://www.w3.org/2000/svg" xmlns:xlink="http://www.w3.org/1999/xlink" x="0px" y="0px"
	 viewBox="0 0 512 512" style="enable-background:new 0 0 512 512;" xml:space="preserve">
<rect x="10" y="403" style="fill:#00ACC1;" width="492" height="50"/>
<path style="fill:#F0F0FA;" d="M502,403H321.82c-27.687,0-53.068,15.424-65.82,40l0,0V99l0,0c12.752-24.576,38.133-40,65.82-40H502
	V403z"/>
<path style="fill:#FFFFFF;" d="M10,403h180.18c27.687,0,53.068,15.424,65.82,40l0,0V99l0,0c-12.752-24.576-38.133-40-65.82-40H10
	V403z"/>
<path d="M502,49H321.82c-26.022,0-50.047,11.845-65.82,31.707C240.227,60.845,216.202,49,190.18,49h-51.513c-5.523,0-10,4.477-10,10
	s4.477,10,10,10h51.513c23.26,0,44.435,12.404,55.82,32.532v312.592C230.886,400.71,211.18,393,190.18,393H20V69h36.667
	c5.523,0,10-4.477,10-10s-4.477-10-10-10H10C4.477,49,0,53.477,0,59v394c0,5.523,4.477,10,10,10h492c5.523,0,10-4.477,10-10V59
	C512,53.477,507.523,49,502,49z M321.82,69H492v324H321.82c-21,0-40.707,7.71-55.82,21.125V101.532
	C277.385,81.404,298.56,69,321.82,69z M20,413h170.18c22.266,0,42.614,11.373,54.3,30H20V413z M267.52,443
	c11.687-18.627,32.035-30,54.3-30H492v30H267.52z"/>
<path d="M192.01,325c-2.63,0-5.21,1.07-7.07,2.93s-2.93,4.44-2.93,7.07s1.07,5.21,2.93,7.07s4.44,2.93,7.07,2.93
	c2.64,0,5.21-1.07,7.07-2.93c1.87-1.86,2.93-4.44,2.93-7.07s-1.06-5.21-2.93-7.07C197.22,326.07,194.64,325,192.01,325z"/>
<path d="M64.319,325c-5.523,0-10,4.477-10,10s4.477,10,10,10h89.997c5.523,0,10-4.477,10-10s-4.477-10-10-10H64.319z"/>
<path d="M192.013,255.667H64.319c-5.523,0-10,4.477-10,10s4.477,10,10,10h127.693c5.523,0,10-4.477,10-10
	S197.536,255.667,192.013,255.667z"/>
<path d="M192.013,186.333H64.319c-5.523,0-10,4.477-10,10s4.477,10,10,10h127.693c5.523,0,10-4.477,10-10
	S197.536,186.333,192.013,186.333z"/>
<path d="M192.013,117H64.319c-5.523,0-10,4.477-10,10c0,5.523,4.477,10,10,10h127.693c5.523,0,10-4.477,10-10
	S197.536,117,192.013,117z"/>
<path d="M448,325c-2.63,0-5.21,1.07-7.07,2.93c-1.86,1.86-2.93,4.44-2.93,7.07s1.07,5.21,2.93,7.07c1.86,1.86,4.44,2.93,7.07,2.93
	s5.21-1.07,7.07-2.93S458,337.63,458,335s-1.07-5.21-2.93-7.07C453.21,326.07,450.63,325,448,325z"/>
<path d="M320.307,345h89.997c5.523,0,10-4.477,10-10s-4.477-10-10-10h-89.997c-5.523,0-10,4.477-10,10S314.784,345,320.307,345z"/>
<path d="M320.307,275.667H448c5.523,0,10-4.477,10-10s-4.477-10-10-10H320.307c-5.523,0-10,4.477-10,10
	S314.784,275.667,320.307,275.667z"/>
<path d="M320.307,206.333H448c5.523,0,10-4.477,10-10s-4.477-10-10-10H320.307c-5.523,0-10,4.477-10,10
	S314.784,206.333,320.307,206.333z"/>
<path d="M320.307,137H448c5.523,0,10-4.477,10-10s-4.477-10-10-10H320.307c-5.523,0-10,4.477-10,10
	C310.307,132.523,314.784,137,320.307,137z"/>
<path d="M98,69c2.63,0,5.21-1.07,7.07-2.93S108,61.63,108,59s-1.07-5.21-2.93-7.07S100.63,49,98,49s-5.21,1.07-7.07,2.93
	S88,56.37,88,59s1.07,5.21,2.93,7.07S95.37,69,98,69z"/>
<g>
</g>
<g>
</g>
<g>
</g>
<g>
</g>
<g>
</g>
<g>
</g>
<g>
</g>
<g>
</g>
<g>
</g>
<g>
</g>
<g>
</g>
<g>
</g>
<g>
</g>
<g>
</g>
<g>
</g>
</svg>
