<?xml version="1.0" encoding="iso-8859-1"?>
<!-- Generator: Adobe Illustrator 19.0.0, SVG Export Plug-In . SVG Version: 6.00 Build 0)  -->
<svg version="1.1" id="Capa_1" xmlns="http://www.w3.org/2000/svg" xmlns:xlink="http://www.w3.org/1999/xlink" x="0px" y="0px"
	 viewBox="0 0 512 512" style="enable-background:new 0 0 512 512;" xml:space="preserve">
<g>
	<g>
		<path d="M502,49H321.82c-26.022,0-50.047,11.845-65.82,31.707C240.227,60.845,216.202,49,190.18,49h-51.513
			c-5.523,0-10,4.477-10,10s4.477,10,10,10h51.513c23.26,0,44.435,12.404,55.82,32.532v312.592
			C230.886,400.71,211.18,393,190.18,393H20V69h36.667c5.523,0,10-4.477,10-10s-4.477-10-10-10H10C4.477,49,0,53.477,0,59v394
			c0,5.523,4.477,10,10,10h492c5.523,0,10-4.477,10-10V59C512,53.477,507.523,49,502,49z M20,443v-30h170.18
			c22.266,0,42.614,11.373,54.3,30H20z M492,443H267.52c11.687-18.627,32.035-30,54.3-30H492V443z M492,393H321.82
			c-21,0-40.707,7.71-55.82,21.125V101.532C277.385,81.404,298.56,69,321.82,69H492V393z" fill="#555"/>
	</g>
</g>
<g>
	<g>
		<path d="M199.08,327.93c-1.86-1.86-4.44-2.93-7.07-2.93s-5.21,1.07-7.07,2.93s-2.93,4.44-2.93,7.07s1.07,5.21,2.93,7.07
			c1.86,1.86,4.44,2.93,7.07,2.93c2.64,0,5.21-1.07,7.07-2.93c1.87-1.86,2.93-4.44,2.93-7.07S200.95,329.79,199.08,327.93z" fill="#555"/>
	</g>
</g>
<g>
	<g>
		<path d="M154.316,325H64.319c-5.523,0-10,4.477-10,10s4.477,10,10,10h89.997c5.523,0,10-4.477,10-10S159.839,325,154.316,325z" fill="#555"/>
	</g>
</g>
<g>
	<g>
		<path d="M192.013,255.667H64.319c-5.523,0-10,4.477-10,10c0,5.523,4.477,10,10,10h127.693c5.523,0,10-4.477,10-10
			S197.536,255.667,192.013,255.667z" fill="#555"/>
	</g>
</g>
<g>
	<g>
		<path d="M192.013,186.333H64.319c-5.523,0-10,4.477-10,10c0,5.523,4.477,10,10,10h127.693c5.523,0,10-4.477,10-10
			C202.012,190.81,197.536,186.333,192.013,186.333z" fill="#555"/>
	</g>
</g>
<g>
	<g>
		<path d="M192.013,117H64.319c-5.523,0-10,4.477-10,10s4.477,10,10,10h127.693c5.523,0,10-4.477,10-10S197.536,117,192.013,117z" fill="#555"/>
	</g>
</g>
<g>
	<g>
		<path d="M455.07,327.93c-1.86-1.86-4.44-2.93-7.07-2.93s-5.21,1.07-7.07,2.93c-1.86,1.86-2.93,4.44-2.93,7.07s1.07,5.21,2.93,7.07
			c1.86,1.86,4.44,2.93,7.07,2.93s5.21-1.07,7.07-2.93c1.86-1.86,2.93-4.44,2.93-7.07S456.93,329.79,455.07,327.93z" fill="#555"/>
	</g>
</g>
<g>
	<g>
		<path d="M410.304,325h-89.997c-5.523,0-10,4.477-10,10s4.477,10,10,10h89.997c5.523,0,10-4.477,10-10S415.827,325,410.304,325z" fill="#555"/>
	</g>
</g>
<g>
	<g>
		<path d="M448,255.667H320.307c-5.523,0-10,4.477-10,10s4.477,10,10,10H448c5.523,0,10-4.477,10-10S453.523,255.667,448,255.667z" fill="#555"/>
	</g>
</g>
<g>
	<g>
		<path d="M448,186.333H320.307c-5.523,0-10,4.477-10,10c0,5.523,4.477,10,10,10H448c5.523,0,10-4.477,10-10
			C458,190.81,453.523,186.333,448,186.333z" fill="#555"/>
	</g>
</g>
<g>
	<g>
		<path d="M448,117H320.307c-5.523,0-10,4.477-10,10s4.477,10,10,10H448c5.523,0,10-4.477,10-10S453.523,117,448,117z" fill="#555"/>
	</g>
</g>
<g>
	<g>
		<path d="M105.07,51.93C103.21,50.07,100.63,49,98,49s-5.21,1.07-7.07,2.93S88,56.37,88,59s1.07,5.21,2.93,7.07S95.37,69,98,69
			s5.21-1.07,7.07-2.93S108,61.63,108,59S106.93,53.79,105.07,51.93z" fill="#555"/>
	</g>
</g>
<g>
</g>
<g>
</g>
<g>
</g>
<g>
</g>
<g>
</g>
<g>
</g>
<g>
</g>
<g>
</g>
<g>
</g>
<g>
</g>
<g>
</g>
<g>
</g>
<g>
</g>
<g>
</g>
<g>
</g>
</svg>
