<?xml version="1.0" encoding="iso-8859-1"?>
<!-- Generator: Adobe Illustrator 19.0.0, SVG Export Plug-In . SVG Version: 6.00 Build 0)  -->
<svg version="1.1" id="Capa_1" xmlns="http://www.w3.org/2000/svg" xmlns:xlink="http://www.w3.org/1999/xlink" x="0px" y="0px"
	 viewBox="0 0 512 512" style="enable-background:new 0 0 512 512;" xml:space="preserve">
<g>
	<g>
		<path d="M437.019,74.98C388.667,26.629,324.38,0,256,0S123.333,26.629,74.981,74.98C26.628,123.333,0,187.62,0,256
			s26.628,132.667,74.981,181.02C123.333,485.371,187.62,512,256,512s132.667-26.629,181.019-74.98
			C485.372,388.667,512,324.38,512,256S485.372,123.333,437.019,74.98z M256,492C125.869,492,20,386.131,20,256S125.869,20,256,20
			s236,105.869,236,236S386.131,492,256,492z"/>
	</g>
</g>
<g>
	<g>
		<path d="M256,164c-50.729,0-92,41.271-92,92s41.271,92,92,92s92-41.271,92-92S306.729,164,256,164z M256,328
			c-39.701,0-72-32.299-72-72s32.299-72,72-72s72,32.299,72,72S295.701,328,256,328z"/>
	</g>
</g>
<g>
	<g>
		<path d="M256,222c-18.748,0-34,15.252-34,34s15.252,34,34,34s34-15.252,34-34S274.748,222,256,222z M256,270
			c-7.72,0-14-6.28-14-14c0-7.72,6.28-14,14-14c7.72,0,14,6.28,14,14C270,263.72,263.72,270,256,270z"/>
	</g>
</g>
<g>
	<g>
		<path d="M256.025,55.992c-0.039,0-0.08,0-0.12,0c-6.683,0.062-10.265,5.225-10.243,10.052C245.685,70.87,249.315,76,256,76
			c0.062,0,0.123-0.001,0.185-0.002c6.682-0.124,10.217-5.319,10.15-10.145C266.268,61.055,262.634,55.992,256.025,55.992z"/>
	</g>
</g>
<g>
	<g>
		<path d="M235.282,66.851c-0.883-5.452-6.024-9.164-11.469-8.273c-46.358,7.503-88.829,31.359-119.59,67.172
			C73.126,161.955,56,208.212,56,256c0,5.522,4.477,10,10,10s10-4.478,10-10c0-88.792,63.508-163.518,151.008-177.68
			C232.46,77.438,236.164,72.303,235.282,66.851z"/>
	</g>
</g>
<g>
	<g>
		<path d="M256,112c-79.402,0-144,64.598-144,144c0,5.522,4.477,10,10,10s10-4.478,10-10c0-68.374,55.626-124,124-124
			c5.523,0,10-4.478,10-10C266,116.478,261.523,112,256,112z"/>
	</g>
</g>
<g>
	<g>
		<path d="M446,246c-5.523,0-10,4.478-10,10c0,99.252-80.748,180-180,180c-5.523,0-10,4.478-10,10c0,5.522,4.477,10,10,10
			c110.28,0,200-89.72,200-200C456,250.478,451.523,246,446,246z"/>
	</g>
</g>
<g>
	<g>
		<path d="M257.002,379.996c-0.03,0-0.06,0-0.09,0L256,380c-5.523,0-10,4.478-10,10c0,5.522,4.477,10,10,10l1.088-0.004
			c5.523-0.049,9.961-4.566,9.912-10.088C266.951,384.415,262.484,379.996,257.002,379.996z"/>
	</g>
</g>
<g>
	<g>
		<path d="M390,246c-5.523,0-10,4.478-10,10c0,55.628-37.406,104.79-90.965,119.553c-5.324,1.468-8.45,6.974-6.983,12.298
			c1.223,4.436,5.247,7.346,9.635,7.346c0.88,0,1.774-0.117,2.663-0.362C356.555,377.688,400,320.597,400,256
			C400,250.478,395.523,246,390,246z"/>
	</g>
</g>
<g>
</g>
<g>
</g>
<g>
</g>
<g>
</g>
<g>
</g>
<g>
</g>
<g>
</g>
<g>
</g>
<g>
</g>
<g>
</g>
<g>
</g>
<g>
</g>
<g>
</g>
<g>
</g>
<g>
</g>
</svg>
